<svg width="22" height="22" fill="none" xmlns="http://www.w3.org/2000/svg"><path fill-rule="evenodd" clip-rule="evenodd" d="M0 3.18v15.64A3.18 3.18 0 0 0 3.18 22h15.64A3.18 3.18 0 0 0 22 18.82V3.18A3.18 3.18 0 0 0 18.82 0H3.18A3.18 3.18 0 0 0 0 3.18Zm2 0C2 2.528 2.528 2 3.18 2H5v3H2V3.18ZM2 7h3v3H2V7Zm18-2V3.18A1.18 1.18 0 0 0 18.82 2H17v3h3Zm-3 2h3v3h-3V7Zm-2-5H7v8h8V2Zm5 10v3h-3v-3h3Zm0 5h-3v3h1.82A1.18 1.18 0 0 0 20 18.82V17Zm-5-5v8H7v-8h8ZM2 17v1.82c0 .652.528 1.18 1.18 1.18H5v-3H2Zm3-2H2v-3h3v3Z" fill="#000"/></svg>