<svg width="22" height="22" viewBox="0 0 22 22" fill="none" xmlns="http://www.w3.org/2000/svg">
<path fill-rule="evenodd" clip-rule="evenodd" d="M0 3.18V18.82C0 20.5763 1.42373 22 3.18 22H18.82C20.5763 22 22 20.5763 22 18.82V3.18C22 1.42373 20.5763 0 18.82 0H3.18C1.42373 0 0 1.42373 0 3.18ZM2 3.18C2 2.5283 2.5283 2 3.18 2H5V5H2V3.18ZM2 7H5V10H2V7ZM20 5V3.18C20 2.5283 19.4717 2 18.82 2H17V5H20ZM17 7H20V10H17V7ZM15 2H7V10H15V2ZM20 12V15H17V12H20ZM20 17H17V20H18.82C19.4717 20 20 19.4717 20 18.82V17ZM15 12V20H7V12H15ZM2 17V18.82C2 19.4717 2.5283 20 3.18 20H5V17H2ZM5 15H2V12H5V15Z" fill="black"/>
</svg>
